<?xml version="1.0" encoding="UTF-8"?>
<svg xmlns="http://www.w3.org/2000/svg" xmlns:xlink="http://www.w3.org/1999/xlink" width="512px" height="512px" viewBox="0 0 512 512" version="1.1">
<g id="surface1">
<path style=" stroke:none;fill-rule:nonzero;fill:rgb(0%,0%,0%);fill-opacity:1;" d="M 254.699219 70.699219 C 253.101562 73.5 175 208.398438 145.5 259.5 C 125.800781 293.601562 105.199219 329.101562 99.800781 338.398438 C 94.398438 347.800781 90 355.800781 90 356.199219 C 90 356.601562 109.601562 357 133.5 357 C 157.800781 357 177 356.601562 177 356.101562 C 177 355.601562 174.398438 353.101562 171.300781 350.398438 C 168.101562 347.699219 160.699219 341.398438 154.800781 336.199219 L 144 326.898438 L 146.199219 322.699219 C 148.199219 318.601562 156.800781 303.5 170 281 C 173.699219 274.699219 188.699219 248.601562 203.5 223 C 218.199219 197.398438 231.5 174.5 233 172 C 234.5 169.5 240.199219 159.699219 245.601562 150.300781 C 251 140.800781 255.699219 133 256 133 C 256.300781 133 258.398438 136.300781 260.601562 140.300781 C 262.898438 144.199219 277 168.601562 292 194.5 C 334.199219 267.398438 352.800781 299.5 359.601562 311.5 C 364.101562 319.300781 365.601562 322.699219 364.699219 323.199219 C 364 323.601562 322.101562 324 271.5 324 L 179.5 324 L 234.5 379 L 235.101562 357 L 328.5 357 C 379.898438 357 422 356.699219 422 356.398438 C 422 355.5 410.898438 336.101562 301.699219 147.5 C 289.601562 126.601562 274.601562 100.601562 268.300781 89.699219 C 262 78.898438 256.5 70 256 70 C 255.5 70 254.898438 70.300781 254.699219 70.699219 Z M 254.699219 70.699219 "/>
<path style=" stroke:none;fill-rule:nonzero;fill:rgb(0%,0%,0%);fill-opacity:1;" d="M 251.699219 211.199219 C 249.800781 214.699219 239 233.5 227.601562 253 L 207 288.5 L 231.5 288.800781 C 245 288.898438 267 288.898438 280.5 288.800781 L 305 288.5 L 289.898438 262.5 C 281.601562 248.199219 270.800781 229.5 265.800781 221 C 260.898438 212.5 256.5 205.398438 256.101562 205.199219 C 255.601562 205 253.699219 207.699219 251.699219 211.199219 Z M 251.699219 211.199219 "/>
</g>
</svg>
