<?xml version="1.0" encoding="UTF-8"?>
<svg xmlns="http://www.w3.org/2000/svg" xmlns:xlink="http://www.w3.org/1999/xlink" width="512px" height="512px" viewBox="0 0 512 512" version="1.1">
<g id="surface1">
<path style=" stroke:none;fill-rule:nonzero;fill:rgb(0%,0%,0%);fill-opacity:1;" d="M 247 49.699219 C 242.300781 57.699219 237.300781 66.5 235.800781 69.199219 C 234.300781 71.800781 231.101562 77.398438 228.601562 81.5 C 226.101562 85.699219 224 89.199219 224 89.398438 C 224 89.699219 218 100.101562 210.699219 112.699219 C 203.398438 125.199219 195.800781 138.199219 193.898438 141.5 C 192 144.800781 190 148.398438 189.300781 149.5 C 188.601562 150.601562 187.800781 152.199219 187.398438 153 C 187 153.800781 185.199219 156.898438 183.300781 159.800781 C 181.5 162.699219 180 165.199219 180 165.5 C 180 165.699219 173.898438 176.300781 166.5 188.898438 C 159.101562 201.601562 153 212.199219 153 212.5 C 153 212.800781 150.800781 216.601562 148 221 C 145.199219 225.398438 143 229.199219 143 229.398438 C 143 229.601562 136.898438 240.300781 129.398438 253.199219 C 121.898438 266 113.898438 279.898438 111.5 284 C 109.101562 288.101562 101.601562 301.199219 94.601562 313.101562 C 87.699219 325.101562 81.101562 336.5 79.898438 338.601562 C 78.699219 340.800781 76.300781 345 74.5 348 C 69.199219 357.101562 62.699219 368.300781 60.898438 371.5 C 60 373.199219 55.601562 380.800781 51.101562 388.398438 C 46.699219 396 43 402.5 43 402.699219 C 43 403 42.199219 404.398438 41.101562 405.800781 C 40.101562 407.300781 38.199219 410.5 36.800781 413 C 32.898438 420.101562 19.199219 443.699219 13.898438 452.601562 C 11.199219 457.101562 9 461.101562 9 461.601562 C 9 462 8.398438 463.101562 7.699219 463.898438 C 6.898438 464.800781 4.898438 468.101562 3.101562 471.199219 L -0.101562 477 L 135.898438 477 L 130.699219 472.199219 C 127.800781 469.601562 123 465.398438 120 463 C 117 460.601562 112.199219 456.5 109.398438 454 C 101.398438 446.898438 84.898438 432.601562 83.800781 431.898438 C 83.300781 431.601562 86.5 425.101562 90.898438 417.5 C 95.398438 410 99 403.601562 99 403.398438 C 99 403.199219 101 399.800781 103.300781 395.800781 C 105.699219 391.800781 112.101562 380.800781 117.5 371.5 C 122.898438 362.101562 129.300781 351.199219 131.699219 347.300781 C 134.101562 343.300781 136 339.800781 136 339.5 C 136 339.300781 137.601562 336.601562 139.5 333.601562 C 141.398438 330.601562 143 327.898438 143 327.601562 C 143 327.300781 145.199219 323.300781 147.898438 318.800781 C 150.601562 314.199219 156.699219 303.699219 161.398438 295.5 C 166.199219 287.199219 170.5 279.800781 171 279 C 172.699219 276.199219 178.300781 266.5 180.300781 263 C 183.398438 257.300781 207.898438 215.101562 212.601562 207.199219 C 215 203.199219 217 199.699219 217 199.398438 C 217 199.101562 218.601562 196.398438 220.5 193.398438 C 222.398438 190.398438 224 187.800781 224 187.5 C 224 187.300781 228.5 179.300781 234.101562 169.800781 C 239.601562 160.300781 245.699219 149.800781 247.699219 146.5 C 249.601562 143.199219 251.601562 139.800781 252.101562 139 C 252.601562 138.199219 253.398438 136.5 254 135.199219 C 254.5 134 255.398438 133 256 133 C 256.601562 133 257.5 134 258.101562 135.199219 C 258.601562 136.5 259.601562 138.398438 260.300781 139.5 C 261 140.601562 263 144.199219 264.898438 147.5 C 266.800781 150.800781 274.398438 163.800781 281.699219 176.300781 C 289 188.898438 295 199.398438 295 199.601562 C 295 199.800781 297.300781 203.699219 300 208.101562 C 302.800781 212.5 305 216.300781 305 216.601562 C 305 216.800781 311.101562 227.398438 318.5 240 C 325.898438 252.699219 332 263.300781 332 263.601562 C 332 263.898438 333.5 266.398438 335.300781 269.300781 C 337.101562 272.199219 338.898438 275.199219 339.300781 276 C 340.101562 277.699219 339.5 276.699219 358.898438 309.800781 C 366.699219 323.199219 374.101562 336.101562 375.398438 338.398438 C 380.398438 347.300781 404.5 388.898438 408.601562 395.601562 C 411 399.601562 413 403 413 403.300781 C 413 403.601562 415.601562 408.300781 418.800781 413.699219 C 422 419.101562 424.898438 424.300781 425.300781 425.300781 C 425.898438 426.898438 418.699219 427 282.5 427 C 203.601562 427 139 427.300781 139 427.800781 C 139 428.199219 157.898438 447.398438 181 470.5 L 223 512.5 L 223 477 L 512.199219 477 L 510.398438 474.300781 C 508.300781 471 504.300781 464.101562 503.398438 462 C 503 461.199219 501.898438 459.398438 501 458 C 500 456.601562 498.199219 453.5 496.800781 451 C 493.699219 445.5 460.398438 387.398438 456.199219 380.398438 C 454.601562 377.601562 451.800781 372.800781 450.199219 369.898438 C 448.5 366.898438 444.199219 359.300781 440.5 353 C 436.800781 346.699219 433 340.101562 432 338.5 C 431.101562 336.800781 426.898438 329.601562 422.800781 322.5 C 418.601562 315.300781 414.199219 307.699219 413 305.5 C 411.800781 303.300781 409.300781 299 407.5 296 C 405.699219 293 402.5 287.300781 400.199219 283.5 C 398 279.601562 390.800781 267.300781 384.300781 256 C 377.699219 244.699219 371.199219 233.5 369.800781 231 C 366.699219 225.398438 354.398438 204 343.5 185.5 C 339 177.800781 334.199219 169.5 332.800781 167 C 330.5 162.898438 325.199219 153.601562 323 150 C 322.5 149.199219 318.199219 141.699219 313.398438 133.5 C 308.699219 125.199219 302.601562 114.800781 299.898438 110.199219 C 297.199219 105.699219 295 101.800781 295 101.5 C 295 101.199219 293.398438 98.601562 291.5 95.601562 C 289.601562 92.601562 288 89.898438 288 89.601562 C 288 89.300781 285.601562 85.101562 282.800781 80.199219 C 279.898438 75.300781 272.800781 63.199219 267 53.199219 C 261.199219 43.199219 256.300781 35 256 35 C 255.699219 35 251.699219 41.601562 247 49.699219 Z M 247 49.699219 "/>
<path style=" stroke:none;fill-rule:nonzero;fill:rgb(0%,0%,0%);fill-opacity:1;" d="M 253.699219 245.699219 C 253 247.300781 249.699219 253 246.601562 258.5 C 235.5 277.601562 208.800781 323.5 204.699219 330.5 C 202.398438 334.300781 199.800781 338.800781 198.898438 340.5 C 198 342.101562 193.398438 350.199219 188.699219 358.300781 C 183.898438 366.5 180 373.398438 180 373.601562 C 180 373.800781 214.199219 374 256 374 C 297.800781 374 332 373.800781 332 373.601562 C 332 373.398438 328.101562 366.5 323.300781 358.300781 C 318.601562 350.199219 314 342.101562 313.101562 340.5 C 312.199219 338.800781 309.601562 334.300781 307.300781 330.5 C 303.199219 323.5 276.5 277.601562 265.398438 258.5 C 262.300781 253 259 247.300781 258.300781 245.699219 C 257.5 244.199219 256.5 243 256 243 C 255.5 243 254.5 244.199219 253.699219 245.699219 Z M 253.699219 245.699219 "/>
</g>
</svg>
