<?xml version="1.0" standalone="no"?>
<!DOCTYPE svg PUBLIC "-//W3C//DTD SVG 20010904//EN"
 "http://www.w3.org/TR/2001/REC-SVG-20010904/DTD/svg10.dtd">
<svg version="1.0" xmlns="http://www.w3.org/2000/svg"
 width="721.000000pt" height="721.000000pt" viewBox="0 0 721.000000 721.000000"
 preserveAspectRatio="xMidYMid meet">

<g transform="translate(0.000000,721.000000) scale(0.100000,-0.100000)"
fill="#000000" stroke="none">
<path d="M3543 6622 c-34 -59 -845 -1461 -1803 -3117 l-1740 -3010 480 -3
c264 -1 695 -1 958 0 l478 3 -373 320 c-205 176 -371 325 -369 330 13 36 2424
4190 2432 4189 7 0 2203 -3783 2266 -3904 7 -13 41 -73 75 -132 l62 -108
-2032 0 -2032 0 595 -595 595 -595 3 245 2 245 2034 2 2034 3 -262 455 c-415
719 -3308 5722 -3326 5752 l-16 26 -61 -106z"/>
<path d="M3070 2878 c-294 -506 -536 -925 -538 -929 -2 -5 477 -9 1072 -9 592
0 1076 2 1076 4 0 3 -1069 1848 -1074 1853 -1 1 -242 -412 -536 -919z"/>
</g>
</svg>
