<?xml version="1.0" encoding="UTF-8"?>
<svg xmlns="http://www.w3.org/2000/svg" xmlns:xlink="http://www.w3.org/1999/xlink" width="192px" height="192px" viewBox="0 0 192 192" version="1.1">
<g id="surface1">
<path style=" stroke:none;fill-rule:nonzero;fill:rgb(0%,0%,0%);fill-opacity:1;" d="M 65 79.601562 C 48.199219 108.5 34.398438 132.601562 34.199219 133.101562 C 34 133.601562 41 134 50.199219 134 L 66.5 133.898438 L 60.101562 128.199219 L 53.699219 122.398438 L 74.601562 86.199219 C 86.101562 66.300781 95.699219 50 96 50 C 96.898438 50 137 120.300781 136.5 120.898438 C 136.101562 121.199219 120.601562 121.699219 101.898438 122 L 68 122.5 L 88 142.5 L 88 134 L 123 134 C 142.300781 134 158 133.800781 158 133.699219 C 158 133.5 149.199219 118 138.398438 99.398438 C 127.601562 80.800781 113.800781 56.800781 107.699219 46.199219 C 101.601562 35.699219 96.300781 27 96 27 C 95.699219 27 81.699219 50.699219 65 79.601562 Z M 65 79.601562 "/>
<path style=" stroke:none;fill-rule:nonzero;fill:rgb(0%,0%,0%);fill-opacity:1;" d="M 86.800781 92.300781 L 78.101562 107.5 L 87.101562 107.800781 C 92 107.898438 100 107.898438 104.898438 107.800781 L 113.898438 107.5 L 105.5 93.101562 C 100.898438 85.199219 96.699219 78.300781 96.300781 77.898438 C 95.898438 77.5 91.601562 84 86.800781 92.300781 Z M 86.800781 92.300781 "/>
</g>
</svg>
