<?xml version="1.0" encoding="UTF-8"?>
<svg xmlns="http://www.w3.org/2000/svg" xmlns:xlink="http://www.w3.org/1999/xlink" width="192px" height="192px" viewBox="0 0 192 192" version="1.1">
<g id="surface1">
<path style=" stroke:none;fill-rule:nonzero;fill:rgb(0%,0%,0%);fill-opacity:1;" d="M 47.699219 96.199219 L 0.101562 178.5 L 12.5 178.800781 C 19.300781 178.898438 30.699219 178.898438 37.800781 178.800781 L 50.800781 178.5 L 40.898438 170.101562 L 31.101562 161.800781 L 33.800781 157.101562 C 68.699219 96.300781 95.601562 50.101562 96 50.101562 C 96.300781 50.101562 110.699219 74.699219 128.101562 104.800781 L 159.601562 159.5 L 52 160.5 L 84 192.5 L 84 179 L 137.898438 178.800781 L 191.800781 178.5 L 184.601562 166 C 180.601562 159.101562 159.199219 122.101562 137 83.699219 C 114.898438 45.398438 96.398438 14 96 14 C 95.601562 14 73.898438 51 47.699219 96.199219 Z M 47.699219 96.199219 "/>
<path style=" stroke:none;fill-rule:nonzero;fill:rgb(0%,0%,0%);fill-opacity:1;" d="M 81.601562 115.5 C 74.101562 128.398438 68 139.199219 68 139.5 C 68 139.800781 80.601562 140 96 140 C 111.398438 140 124 139.800781 124 139.5 C 124 138.398438 96.601562 92 96 92 C 95.601562 92 89.199219 102.601562 81.601562 115.5 Z M 81.601562 115.5 "/>
</g>
</svg>
